<svg xmlns="http://www.w3.org/2000/svg" viewBox="0 0 900 900" role="img" aria-label="Fade-leikkaus"><defs><linearGradient id="g" x1="0" y1="0" x2="1" y2="1"><stop stop-color="#26212d"/><stop offset="1" stop-color="#9b86ff"/></linearGradient></defs><rect width="900" height="900" fill="url(#g)"/><circle cx="690" cy="170" r="100" fill="none" stroke="#fff" stroke-opacity=".18" stroke-width="34"/><path d="M285 585c20-190 90-286 215-286 116 0 181 76 199 228 15 125-60 215-199 215-143 0-230-64-215-157Z" fill="#e6c2a7"/><path d="M277 490c18-147 93-231 223-231 123 0 194 70 215 202-115-58-258-49-438 29Z" fill="#17151d"/><path d="M330 576c88-47 214-55 342-17" fill="none" stroke="#ffffff" stroke-opacity=".35" stroke-width="18" stroke-linecap="round"/></svg>
