<svg xmlns="http://www.w3.org/2000/svg" viewBox="0 0 900 900" role="img" aria-label="Hiustenleikkaus"><defs><linearGradient id="g" x1="0" y1="0" x2="1" y2="1"><stop stop-color="#f4e0cc"/><stop offset="1" stop-color="#846f60"/></linearGradient></defs><rect width="900" height="900" fill="url(#g)"/><circle cx="720" cy="150" r="86" fill="none" stroke="#fff" stroke-opacity=".25" stroke-width="28"/><path d="M254 679c31-280 132-421 302-421 145 0 226 107 244 321-77 109-179 163-306 163-99 0-179-21-240-63Z" fill="#edc7a9"/><path d="M262 466c16-160 118-253 276-253 131 0 219 81 251 227-95-82-271-73-527 26Z" fill="#211d1d"/><path d="M346 352c24 24 61 44 112 60M492 314c42 42 96 70 162 85" fill="none" stroke="#fff" stroke-opacity=".2" stroke-width="20" stroke-linecap="round"/></svg>
