<svg xmlns="http://www.w3.org/2000/svg" viewBox="0 0 900 900" role="img" aria-label="Kynnet"><defs><linearGradient id="g" x1="0" y1="0" x2="1" y2="1"><stop stop-color="#ffe1ef"/><stop offset="1" stop-color="#c66ca2"/></linearGradient></defs><rect width="900" height="900" fill="url(#g)"/><circle cx="720" cy="180" r="96" fill="none" stroke="#fff" stroke-opacity=".24" stroke-width="28"/><path d="M230 694c70-153 151-249 242-288 105-45 193-24 265 64-49 114-134 188-255 220-87 23-171 24-252 4Z" fill="#f4c9b8"/><path d="M392 392c62-41 126-56 192-47 13 68 6 130-20 186-67 7-126 25-177 55-24-61-22-126 5-194Z" fill="#f5f0f3"/><path d="M501 339c26 51 26 116 0 194" fill="none" stroke="#d575aa" stroke-width="18" stroke-linecap="round"/></svg>
