<svg xmlns="http://www.w3.org/2000/svg" viewBox="0 0 900 900" role="img" aria-label="Nail art"><defs><linearGradient id="g" x1="0" y1="0" x2="1" y2="1"><stop stop-color="#faf1ff"/><stop offset="1" stop-color="#8667dd"/></linearGradient></defs><rect width="900" height="900" fill="url(#g)"/><circle cx="720" cy="170" r="94" fill="none" stroke="#fff" stroke-opacity=".22" stroke-width="28"/><path d="M245 694c67-156 152-254 253-294 105-42 190-18 255 72-52 117-140 191-264 221-88 21-169 21-244 1Z" fill="#f0c6b5"/><path d="M393 386c54-37 116-53 185-49 20 84 9 158-33 222-66 7-119 24-159 51-30-77-27-151 7-224Z" fill="#21182a"/><path d="M420 418l136 98M558 395l-142 136" stroke="#f3d76d" stroke-width="18" stroke-linecap="round"/><circle cx="523" cy="462" r="18" fill="#fff"/></svg>
